<svg xmlns="http://www.w3.org/2000/svg" viewBox="0 0 78.86 58.46">
  <defs>
    <style>
      .cls-2 {
        opacity: .5;
      }
    </style>
  </defs>
  <g id="Layer_2-2" data-name="Layer 2">
    <path class="cls-1" d="m52.63,7.24l21.98,21.99-21.98,21.98v-12.42l7.45-7.45,2.12-2.12-2.12-2.12-7.45-7.45V7.24m-3-7.24v20.91l8.33,8.33-8.33,8.33v20.9l29.23-29.23L49.63,0h0Z"/>
    <g class="cls-2">
      <polygon class="cls-1" points="46.75 6.15 46.75 18.11 40.77 12.13 46.75 6.15"/>
    </g>
    <g class="cls-2">
      <polygon class="cls-1" points="46.75 40.67 46.75 52.63 40.77 46.65 46.75 40.67"/>
    </g>
    <path class="cls-1" d="m27.93,7.24l21.98,21.99-21.98,21.98v-12.42l7.45-7.45,2.12-2.12-2.12-2.12-7.45-7.45V7.24m-3-7.24v20.91l8.33,8.33-8.33,8.33v20.9l29.23-29.23L24.93,0h0Z"/>
    <g class="cls-2">
      <polygon class="cls-1" points="22.05 6.15 22.05 18.11 16.07 12.13 22.05 6.15"/>
    </g>
    <g class="cls-2">
      <polygon class="cls-1" points="22.05 40.67 22.05 52.63 16.07 46.65 22.05 40.67"/>
    </g>
    <path class="cls-1" d="m3,7.24l21.98,21.99L3,51.22v-12.42l7.45-7.45,2.12-2.12-2.12-2.12-7.45-7.45V7.24M0,0v20.91l8.33,8.33L0,37.56v20.9l29.23-29.23L0,0h0Z"/>
  </g>
</svg>